<?xml version="1.0" encoding="UTF-8" standalone="no"?>
<svg
   xmlns:dc="http://purl.org/dc/elements/1.1/"
   xmlns:cc="http://creativecommons.org/ns#"
   xmlns:rdf="http://www.w3.org/1999/02/22-rdf-syntax-ns#"
   xmlns:svg="http://www.w3.org/2000/svg"
   xmlns="http://www.w3.org/2000/svg"
   xmlns:sodipodi="http://sodipodi.sourceforge.net/DTD/sodipodi-0.dtd"
   xmlns:inkscape="http://www.inkscape.org/namespaces/inkscape"
   version="1.1"
   id="Layer_1"
   x="0px"
   y="0px"
   width="24px"
   height="24px"
   viewBox="0 0 24 24"
   xml:space="preserve"
   inkscape:version="0.91 r13725"
   sodipodi:docname="github.svg"><defs
     id="defs9" /><sodipodi:namedview
     pagecolor="#ffffff"
     bordercolor="#666666"
     borderopacity="1"
     objecttolerance="10"
     gridtolerance="10"
     guidetolerance="10"
     inkscape:pageopacity="0"
     inkscape:pageshadow="2"
     inkscape:window-width="1920"
     inkscape:window-height="1017"
     id="namedview7"
     showgrid="false"
     inkscape:zoom="9.8333333"
     inkscape:cx="12"
     inkscape:cy="11.898305"
     inkscape:window-x="-8"
     inkscape:window-y="-8"
     inkscape:window-maximized="1"
     inkscape:current-layer="Layer_1" /><path
     d="M15.5 22.7h-.1l-.1-.1V22v-2.5c0-.7-.1-1.3-.4-1.8 2.3-.4 4.8-1.6 4.8-6.1 0-1.2-.4-2.3-1.1-3.2.2-.6.3-1.7-.2-3.1l-.3-.3s-.2-.1-.4-.1c-.6 0-1.5.2-3 1.2-.8-.1-1.7-.3-2.7-.3-1 0-1.9.1-2.8.3C7.8 5.2 6.8 5 6.2 5c-.2 0-.3.1-.4.1-.1 0-.3.2-.3.3-.5 1.4-.4 2.5-.2 3.1-.7.9-1.1 2-1.1 3.2 0 4.4 2.6 5.6 4.8 6.1-.1.2-.2.5-.3.8-.2.1-.5.2-.9.2s-.8-.1-1.1-.4l-.1-.1c-.1-.1-.1-.2-.2-.2l-.1-.1-.1-.1c0-.1-.8-1.3-2.2-1.4-.5 0-.9.2-1 .5-.2.5.4.9.7 1.1 0 0 .6.3 1 1.4.2.7 1.1 2 3.2 2h.7v1.4l-.1.1s-.1 0 0 0C4 21.2 1 17 1 12.3c0-6.1 4.9-11 11-11s11 4.9 11 11c0 4.7-3 8.9-7.5 10.4z"
     id="path3"
     style="fill:#ffffff" /><metadata
     id="metadata5"><rdf:RDF><rdf:Description
         about="https://iconscout.com/legal#licenses"
         dc:title="github"
         dc:description="github"
         dc:publisher="Iconscout"
         dc:date="2018-01-30"
         dc:format="image/svg+xml"
         dc:language="en"><dc:creator><rdf:Bag><rdf:li>Roundicons.com</rdf:li></rdf:Bag></dc:creator></rdf:Description><cc:Work
         rdf:about=""><dc:format>image/svg+xml</dc:format><dc:type
           rdf:resource="http://purl.org/dc/dcmitype/StillImage" /></cc:Work></rdf:RDF></metadata></svg>