<?xml version="1.0" encoding="UTF-8" standalone="no"?>
<svg
   xmlns:dc="http://purl.org/dc/elements/1.1/"
   xmlns:cc="http://creativecommons.org/ns#"
   xmlns:rdf="http://www.w3.org/1999/02/22-rdf-syntax-ns#"
   xmlns:svg="http://www.w3.org/2000/svg"
   xmlns="http://www.w3.org/2000/svg"
   xmlns:sodipodi="http://sodipodi.sourceforge.net/DTD/sodipodi-0.dtd"
   xmlns:inkscape="http://www.inkscape.org/namespaces/inkscape"
   width="800"
   height="800"
   viewBox="0 0 800 800"
   id="svg2"
   version="1.1"
   inkscape:version="0.91 r13725"
   sodipodi:docname="img_icon.svg"
   style="fill:none">
  <metadata
     id="metadata12">
    <rdf:RDF>
      <cc:Work
         rdf:about="">
        <dc:format>image/svg+xml</dc:format>
        <dc:type
           rdf:resource="http://purl.org/dc/dcmitype/StillImage" />
        <dc:title></dc:title>
      </cc:Work>
    </rdf:RDF>
  </metadata>
  <defs
     id="defs10" />
  <sodipodi:namedview
     pagecolor="#ffffff"
     bordercolor="#666666"
     borderopacity="1"
     objecttolerance="10"
     gridtolerance="10"
     guidetolerance="10"
     inkscape:pageopacity="0"
     inkscape:pageshadow="2"
     inkscape:window-width="1920"
     inkscape:window-height="1017"
     id="namedview8"
     showgrid="false"
     inkscape:zoom="0.43685131"
     inkscape:cx="400.86912"
     inkscape:cy="308.69353"
     inkscape:window-x="-8"
     inkscape:window-y="-8"
     inkscape:window-maximized="1"
     inkscape:current-layer="svg2" />
  <path
     d="M 190.75172,130 C 157.27129,130 130,157.27137 130,190.75172 l 0,418.49822 C 130,642.73054 157.27129,670 190.75172,670 l 418.49822,0 C 642.7297,670 670,642.73054 670,609.24994 l 0,-418.49822 C 670,157.27137 642.7297,130 609.24994,130 l -418.49822,0 z m 0,40.5017 418.49822,0 c 11.15087,0 20.25002,9.09915 20.25002,20.25002 l 0,261.25078 -104.16569,-104.16567 c -3.78028,-3.7803 -8.90923,-5.94051 -14.30951,-5.94051 l -0.0812,0 c -5.40028,0 -10.61189,2.16017 -14.36418,6.04817 l -116.55851,118.3692 -48.95191,-48.76305 c -3.77944,-3.7803 -8.91009,-5.9405 -14.30954,-5.9405 -5.21114,-0.81 -10.66592,2.16076 -14.44537,6.12933 l -131.81232,134.59539 0,-361.58314 c 0,-11.15087 9.0983,-20.25002 20.25002,-20.25002 z m 124.68407,88.20786 c -22.99384,0 -41.6348,18.64095 -41.6348,41.6348 0,22.99384 18.64096,41.63314 41.6348,41.63314 22.99385,0 41.63314,-18.6393 41.63314,-41.63314 0,-22.99385 -18.63929,-41.6348 -41.63314,-41.6348 z m 195.67014,132.19168 118.39403,118.3692 0,99.9795 c 0,11.15087 -9.09915,20.25002 -20.25002,20.25002 l -65.33878,0 L 408.72107,494.85157 511.10593,390.90124 Z m -194.15768,69.74197 169.6138,168.85675 -295.81033,0 c -10.85401,0 -19.63047,-8.69365 -20.08934,-19.43995 l 146.28587,-149.4168 z"
     id="path4"
     style="fill:#f2668b;fill-opacity:1"
     inkscape:connector-curvature="0" />
</svg>
