<?xml version="1.0" encoding="UTF-8" standalone="no"?>
<!-- Created with Inkscape (http://www.inkscape.org/) -->

<svg
   xmlns:dc="http://purl.org/dc/elements/1.1/"
   xmlns:cc="http://creativecommons.org/ns#"
   xmlns:rdf="http://www.w3.org/1999/02/22-rdf-syntax-ns#"
   xmlns:svg="http://www.w3.org/2000/svg"
   xmlns="http://www.w3.org/2000/svg"
   xmlns:sodipodi="http://sodipodi.sourceforge.net/DTD/sodipodi-0.dtd"
   xmlns:inkscape="http://www.inkscape.org/namespaces/inkscape"
   id="svg2"
   version="1.1"
   inkscape:version="0.91 r13725"
   width="1628.2686"
   height="1628.2686"
   viewBox="0 0 1628.2686 1628.2686"
   sodipodi:docname="instagram.svg">
  <metadata
     id="metadata8">
    <rdf:RDF>
      <cc:Work
         rdf:about="">
        <dc:format>image/svg+xml</dc:format>
        <dc:type
           rdf:resource="http://purl.org/dc/dcmitype/StillImage" />
        <dc:title />
      </cc:Work>
    </rdf:RDF>
  </metadata>
  <defs
     id="defs6" />
  <sodipodi:namedview
     pagecolor="#ffffff"
     bordercolor="#666666"
     borderopacity="1"
     objecttolerance="10"
     gridtolerance="10"
     guidetolerance="10"
     inkscape:pageopacity="0"
     inkscape:pageshadow="2"
     inkscape:window-width="1920"
     inkscape:window-height="1017"
     id="namedview4"
     showgrid="false"
     inkscape:zoom="0.14493924"
     inkscape:cx="-238.03076"
     inkscape:cy="800.33541"
     inkscape:window-x="-8"
     inkscape:window-y="-8"
     inkscape:window-maximized="1"
     inkscape:current-layer="svg2" />
  <path
     style="fill:#ffffff;fill-opacity:1"
     d="m 753.82405,1627.2163 c -117.47691,-11.9848 -204.52291,-35.6624 -296.82631,-80.7404 -82.80865,-40.4411 -143.6743,-83.2984 -210.00115,-147.868 -72.51946,-70.5982 -118.41696,-133.176 -162.318456,-221.3088 -40.3452,-80.9935 -65.7788,-162.7017 -78.6247004,-252.59014 -8.6304,-60.39147 -7.9374,-168.30805 1.4704,-228.97527 C 21.317734,606.78296 44.861034,532.61749 84.678134,452.6841 128.57513,364.56036 174.46373,301.99238 246.99659,231.36718 315.30242,164.8578 374.48984,123.51494 461.24453,81.71338 538.51834,44.480052 615.99731,20.934554 702.94065,8.2630605 760.51521,-0.1281035 872.80904,0.6437725 931.91592,9.8369725 1076.8818,32.384256 1212.0968,91.603614 1323.082,181.15374 c 40.9725,33.0593 108.18,102.14795 137.723,141.57808 84.9292,113.35192 138.5965,242.94417 158.4201,382.5425 8.1161,57.15337 8.1161,162.28127 0,219.43464 -19.8236,139.59834 -73.4909,269.19054 -158.4201,382.54244 -28.3903,37.8916 -95.9968,107.7747 -134.5427,139.0735 -111.9793,90.9254 -250.344,151.9315 -393.66829,173.5714 -40.2536,6.0777 -147.78697,10.4808 -178.76996,7.32 z m 301.70965,-399.6942 c 50.3471,-13.5882 75.2154,-27.5472 108.6615,-60.9933 33.3663,-33.3662 47.2592,-58.065 61.1217,-108.6615 l 8.6006,-31.3916 0,-211.48406 0,-211.48411 -8.6006,-31.39155 c -13.8625,-50.59657 -27.7554,-75.29531 -61.1217,-108.66158 -33.3662,-33.36628 -58.065,-47.2592 -108.6615,-61.12165 l -31.3916,-8.60066 -211.48413,0 -211.48411,0 -31.39155,8.60066 c -50.59657,13.86245 -75.29531,27.75537 -108.66158,61.12165 -33.36628,33.36627 -47.2592,58.06501 -61.12165,108.66158 l -8.60066,31.39155 0,211.48411 0,211.48406 8.60066,31.3916 c 13.86245,50.5965 27.75537,75.2953 61.12165,108.6615 32.02438,32.0245 57.43218,46.8338 100.48541,58.5696 41.16063,11.2198 65.7921,12.2885 266.95289,11.5825 l 195.58307,-0.6865 31.3916,-8.4723 z m -435.58409,-69.0105 c -26.26438,-2.9112 -54.62278,-10.6562 -72.60182,-19.8284 -19.80805,-10.1053 -48.42748,-39.4382 -58.87209,-60.3397 -20.37412,-40.7722 -20.87074,-47.0389 -20.87074,-263.35186 0,-216.31303 0.49662,-222.57971 20.87074,-263.3519 11.57117,-23.15598 41.2741,-52.17062 64.10064,-62.61533 41.42659,-18.95549 43.20226,-19.08578 260.08163,-19.08578 216.87943,0 218.65503,0.13038 260.08163,19.08578 22.8266,10.44471 52.5295,39.45935 64.1007,62.61533 20.3741,40.77219 20.8707,47.03887 20.8707,263.3519 0,177.541 -0.5307,197.84436 -5.7527,220.09656 -8.1022,34.5256 -21.2533,58.9161 -42.8994,79.563 -21.7479,20.744 -37.033,29.0821 -70.0681,38.2226 -23.4226,6.4808 -31.7636,6.7758 -210.43177,7.4437 -102.32332,0.3825 -196.19756,-0.4302 -208.60942,-1.8059 z m 245.18186,-132.2981 c 10.4947,-2.4974 31.24558,-10.4727 46.11308,-17.7231 38.26555,-18.66075 76.26972,-56.67109 94.89685,-94.91218 17.9067,-36.76192 23.0001,-58.59401 23.0001,-98.58658 0,-39.99257 -5.0934,-61.82466 -23.0001,-98.58658 -18.6354,-38.25804 -56.63881,-76.26145 -94.89685,-94.89686 -36.76192,-17.90666 -58.59401,-23.00002 -98.58658,-23.00002 -39.99257,0 -61.82466,5.09336 -98.58658,23.00002 -38.25804,18.63541 -76.26145,56.63882 -94.89686,94.89686 -17.90666,36.76192 -23.00002,58.59401 -23.00002,98.58658 0,39.95825 5.08478,61.78354 22.96838,98.58658 23.60818,48.58381 74.76186,91.93988 129.40118,109.67608 32.31836,10.4907 79.86533,11.6975 116.5874,2.9592 z m -95.4479,-76.83856 c -38.62224,-13.77783 -68.06188,-40.17572 -85.23591,-76.42925 -9.55839,-20.17723 -10.12892,-23.44162 -10.12892,-57.95405 0,-34.55151 0.56261,-37.76012 10.18129,-58.066 14.14136,-29.85354 37.70253,-53.80585 67.33161,-68.44933 23.45327,-11.59123 24.65015,-11.8239 60.82633,-11.8239 36.17618,0 37.37306,0.23279 60.82633,11.8239 29.62908,14.64348 53.19025,38.59579 67.33161,68.44933 9.61868,20.30588 10.18129,23.51449 10.18129,58.066 0,34.55151 -0.56261,37.76012 -10.18129,58.066 -14.11722,29.80259 -37.70934,53.80922 -67.20692,68.38769 -21.99578,10.87092 -26.23128,11.83255 -55.89108,12.68956 -24.58253,0.7103 -35.82216,-0.40348 -48.03434,-4.75995 z M 1066.6432,631.39167 c 41.3171,-30.59727 21.8851,-93.07848 -28.9479,-93.07848 -24.7235,0 -46.48353,19.92676 -49.0906,44.95471 -4.27141,41.00578 45.8846,71.93532 78.0385,48.12377 z"
     id="path4138"
     inkscape:connector-curvature="0" />
</svg>
