<?xml version="1.0" encoding="UTF-8" standalone="no"?>
<!-- Created with Inkscape (http://www.inkscape.org/) -->

<svg
   xmlns:dc="http://purl.org/dc/elements/1.1/"
   xmlns:cc="http://creativecommons.org/ns#"
   xmlns:rdf="http://www.w3.org/1999/02/22-rdf-syntax-ns#"
   xmlns:svg="http://www.w3.org/2000/svg"
   xmlns="http://www.w3.org/2000/svg"
   xmlns:sodipodi="http://sodipodi.sourceforge.net/DTD/sodipodi-0.dtd"
   xmlns:inkscape="http://www.inkscape.org/namespaces/inkscape"
   id="svg2"
   version="1.1"
   inkscape:version="0.91 r13725"
   width="1100"
   height="1100"
   viewBox="0 0 1100 1100"
   sodipodi:docname="pdf_bg.svg">
  <metadata
     id="metadata8">
    <rdf:RDF>
      <cc:Work
         rdf:about="">
        <dc:format>image/svg+xml</dc:format>
        <dc:type
           rdf:resource="http://purl.org/dc/dcmitype/StillImage" />
        <dc:title></dc:title>
      </cc:Work>
    </rdf:RDF>
  </metadata>
  <defs
     id="defs6" />
  <sodipodi:namedview
     pagecolor="#ffffff"
     bordercolor="#666666"
     borderopacity="1"
     objecttolerance="10"
     gridtolerance="10"
     guidetolerance="10"
     inkscape:pageopacity="0"
     inkscape:pageshadow="2"
     inkscape:window-width="1920"
     inkscape:window-height="1017"
     id="namedview4"
     showgrid="false"
     inkscape:zoom="0.60682618"
     inkscape:cx="609.43498"
     inkscape:cy="631.32382"
     inkscape:window-x="-8"
     inkscape:window-y="-8"
     inkscape:window-maximized="1"
     inkscape:current-layer="svg2" />
  <path
     style="fill:#ffffff;fill-opacity:1"
     d="m 242.15029,1049.1287 c -35.1055,-5.9034 -67.33697,-32.7242 -80.05761,-66.61826 -5.48769,-14.62198 -6.94065,-27.14824 -6.94065,-59.83676 l 0,-29.79287 -32.23317,-0.44712 c -29.741432,-0.41256 -32.769482,-0.66121 -39.170942,-3.21645 -9.352095,-3.73307 -20.615565,-13.17757 -25.718888,-21.56548 -8.427975,-13.85238 -8.025981,-4.59203 -8.025981,-184.88625 0,-114.55104 0.412959,-165.04872 1.387847,-169.70957 3.173376,-15.17158 14.763917,-29.62586 29.596478,-36.90904 l 7.19477,-3.53282 33.171996,-0.62605 33.172,-0.62605 0.6369,-165.9033 0.6369,-165.9033 2.79308,-10.01681 c 3.84394,-13.78542 12.57351,-30.928586 20.82814,-40.902363 9.71554,-11.73896 20.6493,-20.246067 35.19011,-27.379997 23.55061,-11.554258 -3.27832,-10.487939 274.13842,-10.895658 l 245.34763,-0.360586 105.4562,105.504574 105.45619,105.50458 0.31868,105.17643 0.31867,105.17643 33.20443,0.62605 33.20441,0.62605 8.164,4.02319 c 13.8346,6.8176 23.7668,18.53936 27.9734,33.01341 1.8235,6.27436 1.9884,23.41533 1.6861,175.27818 l -0.3352,168.32375 -3.8935,8.13865 c -4.8534,10.14537 -11.9777,18.21146 -20.6886,23.42387 -11.4294,6.8389 -18.1317,7.87864 -50.78725,7.87864 l -29.15368,0 -0.01,30.36343 c -0.005,16.69989 -0.58404,33.90509 -1.28632,38.23378 -5.65331,34.84623 -28.47541,65.03712 -60.24107,79.69172 -5.05361,2.3314 -12.56816,5.2647 -16.69901,6.5185 -7.16796,2.1757 -21.44654,2.2888 -312.9434,2.4799 -167.98802,0.1101 -308.24925,-0.2735 -311.69163,-0.8524 z m 619.00205,-55.79828 c 14.84961,-7.14281 24.17895,-17.75664 28.82075,-32.78898 2.17115,-7.03119 2.47359,-11.6687 2.47359,-37.92915 l 0,-29.91852 -342.45357,0 -342.45358,0 0.447,32.24158 c 0.41263,29.76197 0.6598,32.77122 3.21401,39.12814 5.89797,14.67889 18.59067,26.56193 33.40581,31.27486 7.37573,2.34635 14.8081,2.39836 307.9838,2.15508 l 300.42566,-0.24928 8.13653,-3.91373 z m -639.65631,-208.94334 0,-55.71846 20.96721,-0.005 c 31.89661,-0.008 51.95987,-4.16337 72.86468,-15.09245 17.81015,-9.3112 30.66116,-22.52495 39.56135,-40.67802 7.56996,-15.43993 10.7198,-30.34708 10.70119,-50.64533 -0.0396,-43.1135 -21.21736,-75.2259 -58.58128,-88.828 -21.68696,-7.895 -45.38684,-10.24771 -88.0167,-8.73751 -24.32347,0.86168 -60.30338,4.11567 -62.83883,5.68307 -0.55089,0.34053 -1.00162,70.1714 -1.00162,155.17969 l 0,154.56049 33.172,0 33.172,0 0,-55.71847 z m 4.69415,-110.4709 -4.69415,-0.49115 0,-46.80146 0,-46.80145 5.32004,-0.65996 c 30.06115,-3.72906 49.49953,0.23494 61.37503,12.51597 9.64098,9.97022 13.79334,25.29802 11.10363,40.98726 -1.99805,11.65483 -5.09788,18.28904 -11.98847,25.65756 -12.13629,12.97807 -33.64976,18.46705 -61.11608,15.59323 z m 298.86095,164.8549 c 50.17705,-4.37133 87.58582,-19.17872 113.42866,-44.89808 20.66327,-20.56455 33.74836,-47.11912 40.15106,-81.48169 3.5442,-19.02121 3.84317,-53.66429 0.6159,-71.36972 -7.85639,-43.10195 -27.54222,-72.61836 -62.61972,-93.89036 -16.74579,-10.15514 -39.065,-17.23573 -65.28866,-20.71232 -26.53604,-3.51798 -85.75616,-2.39271 -121.42204,2.3072 l -11.26596,1.48459 -0.31793,152.35727 c -0.30111,144.30665 -0.2019,152.39202 1.87766,153.01503 2.24877,0.6737 28.02765,3.03034 40.37469,3.69096 17.59124,0.9412 50.87008,0.6816 64.46634,-0.50288 z m -36.24234,-54.80374 c -2.39434,-1.02187 -2.44688,-3.10219 -2.56351,-101.47557 -0.10239,-86.38092 0.13527,-100.64334 1.69886,-101.94072 1.28732,-1.06814 9.16035,-1.50098 26.9731,-1.4829 25.15104,0.0255 25.15711,0.0261 36.97916,4.12758 15.55139,5.3952 24.2627,10.85316 34.2866,21.48179 18.20541,19.30373 26.55397,49.2688 23.47677,84.26408 -3.02174,34.36461 -12.2252,56.35058 -30.55394,72.98963 -8.84406,8.02876 -25.91162,16.91105 -38.40753,19.98802 -9.09078,2.23851 -47.85807,3.76867 -51.88951,2.04809 z m 323.52438,-7.08107 0,-63.21926 61.64985,-0.32483 61.64985,-0.32482 0.33602,-29.11133 0.336,-29.11134 -62.00505,0 -62.00507,0 0.33214,-35.99788 0.33215,-35.99789 66.0541,-0.3241 66.0541,-0.32411 -0.33599,-29.10025 -0.33599,-29.10026 -104.52309,0 -104.5231,0 -0.31776,158.07768 -0.31775,158.07767 38.80979,0 38.8098,0 0,-63.21928 z m 79.80988,-384.66491 0.32226,-79.14063 -62.28505,-0.4099 c -69.64978,-0.45837 -67.79197,-0.25073 -87.94641,-9.82975 -22.06527,-10.48719 -38.12926,-26.2887 -48.89134,-48.09247 -10.69893,-21.6758 -10.4036,-19.23992 -10.89208,-89.8382 l -0.43102,-62.292 -213.67569,0.0307 c -139.52577,0.02 -215.58189,0.47016 -219.16875,1.29729 -14.22012,3.27912 -28.89046,14.4968 -35.02391,26.78105 -6.62248,13.26371 -6.39373,6.86724 -6.40968,179.218 -0.009,88.20526 0.36168,160.74984 0.82191,161.2102 0.46023,0.46034 154.38144,0.69511 342.04714,0.52169 l 341.21036,-0.31532 0.32226,-79.14062 z"
     id="path4138"
     inkscape:connector-curvature="0" />
</svg>
