<?xml version="1.0" encoding="UTF-8" standalone="no"?>
<!-- Created with Inkscape (http://www.inkscape.org/) -->

<svg
   xmlns:dc="http://purl.org/dc/elements/1.1/"
   xmlns:cc="http://creativecommons.org/ns#"
   xmlns:rdf="http://www.w3.org/1999/02/22-rdf-syntax-ns#"
   xmlns:svg="http://www.w3.org/2000/svg"
   xmlns="http://www.w3.org/2000/svg"
   xmlns:sodipodi="http://sodipodi.sourceforge.net/DTD/sodipodi-0.dtd"
   xmlns:inkscape="http://www.inkscape.org/namespaces/inkscape"
   id="svg2"
   version="1.1"
   inkscape:version="0.91 r13725"
   width="1000"
   height="1000"
   viewBox="0 0 1000 1000"
   sodipodi:docname="pin.svg">
  <metadata
     id="metadata8">
    <rdf:RDF>
      <cc:Work
         rdf:about="">
        <dc:format>image/svg+xml</dc:format>
        <dc:type
           rdf:resource="http://purl.org/dc/dcmitype/StillImage" />
        <dc:title></dc:title>
      </cc:Work>
    </rdf:RDF>
  </metadata>
  <defs
     id="defs6" />
  <sodipodi:namedview
     pagecolor="#ffffff"
     bordercolor="#666666"
     borderopacity="1"
     objecttolerance="10"
     gridtolerance="10"
     guidetolerance="10"
     inkscape:pageopacity="0"
     inkscape:pageshadow="2"
     inkscape:window-width="1920"
     inkscape:window-height="1017"
     id="namedview4"
     showgrid="false"
     inkscape:zoom="0.3030687"
     inkscape:cx="629.85661"
     inkscape:cy="545.36461"
     inkscape:window-x="-8"
     inkscape:window-y="-8"
     inkscape:window-maximized="1"
     inkscape:current-layer="svg2" />
  <path
     style="fill:#000000"
     d="m 220.00126,706.8817 c 0,0 13.47016,17.01542 24.93394,29.95022 11.46379,12.93478 30.84483,31.13078 30.84483,31.13078 C 123.17475,912.86653 38.958561,975.43153 26.551712,963.59073 14.144866,951.75003 75.911721,864.32303 220.00126,706.8817 Z M 700.0517,630.39882 c 3.58658,21.12594 4.48474,32.79173 4.49418,58.37411 0.0115,29.23651 -1.03006,39.16879 -6.31408,60.25143 -8.41434,33.57235 -26.13225,66.25558 -48.99118,90.37132 -32.41279,34.19485 -63.0359,43.76615 -122.56746,38.30875 -31.61179,-2.898 -81.12919,-20.29883 -121.9737,-42.8626 -120.43021,-66.52936 -223.52588,-185.0241 -261.90785,-301.02822 -10.54141,-31.85992 -14.2555,-59.7458 -12.34711,-92.70355 2.31098,-39.91026 16.95991,-65.73077 52.14086,-91.90456 28.14698,-20.94068 56.60218,-33.81632 91.37861,-41.34776 12.68848,-2.7479 44.25257,-3.55249 72.20263,-1.84049 36.17819,0.81507 41.7545,6.93075 71.08792,25.23433 0,0 141.34848,-105.89112 142.70321,-104.35557 0.48798,0.5531 3.08719,7.26725 5.77604,14.92035 16.46806,46.87205 53.0915,101.33776 90.2394,134.20236 35.02747,30.98869 75.29573,55.91072 109.81215,67.96275 17.15023,5.98832 17.10062,5.96547 17.10062,7.87694 0,2.28681 -99.72313,132.89055 -99.72313,132.89055 5.57388,15.28925 14.15365,29.53856 16.88889,45.64986 z M 800.91647,431.99424 c -55.78133,-9.8581 -111.53032,-43.72503 -158.27281,-96.14905 -25.27387,-28.3459 -47.54929,-65.965 -58.11984,-98.15376 -6.76299,-20.59423 -7.58328,-28.273 -6.83328,-63.96696 0.59825,-28.47166 0.96331,-32.54805 3.89009,-43.43754 7.93581,-29.5264 24.54709,-59.965581 43.58544,-79.867721 12.1988,-12.75226 18.24104,-15.50194 33.87858,-15.41731 55.16565,0.29855 147.36554,60.22407 223.11949,145.017031 62.18665,69.60675 97.45095,137.79946 92.34875,178.58011 -2.1167,16.91894 -24.2881,37.70183 -58.39717,54.74032 -14.95281,7.46935 -27.92639,12.0676 -46.10235,16.34017 -16.95353,3.9852 -52.84173,5.18744 -69.0969,2.31471 z"
     id="path4138"
     inkscape:connector-curvature="0"
     sodipodi:nodetypes="czcscccssssssssccsssssccssssssssssss" />
</svg>
