<?xml version="1.0" encoding="UTF-8" standalone="no"?>
<!-- Created with Inkscape (http://www.inkscape.org/) -->

<svg
   xmlns:dc="http://purl.org/dc/elements/1.1/"
   xmlns:cc="http://creativecommons.org/ns#"
   xmlns:rdf="http://www.w3.org/1999/02/22-rdf-syntax-ns#"
   xmlns:svg="http://www.w3.org/2000/svg"
   xmlns="http://www.w3.org/2000/svg"
   xmlns:sodipodi="http://sodipodi.sourceforge.net/DTD/sodipodi-0.dtd"
   xmlns:inkscape="http://www.inkscape.org/namespaces/inkscape"
   id="svg2"
   version="1.1"
   inkscape:version="0.91 r13725"
   width="1000"
   height="1000"
   viewBox="0 0 1000 1000"
   sodipodi:docname="repost.svg">
  <metadata
     id="metadata8">
    <rdf:RDF>
      <cc:Work
         rdf:about="">
        <dc:format>image/svg+xml</dc:format>
        <dc:type
           rdf:resource="http://purl.org/dc/dcmitype/StillImage" />
        <dc:title></dc:title>
      </cc:Work>
    </rdf:RDF>
  </metadata>
  <defs
     id="defs6" />
  <sodipodi:namedview
     pagecolor="#ffffff"
     bordercolor="#666666"
     borderopacity="1"
     objecttolerance="10"
     gridtolerance="10"
     guidetolerance="10"
     inkscape:pageopacity="0"
     inkscape:pageshadow="2"
     inkscape:window-width="1920"
     inkscape:window-height="1017"
     id="namedview4"
     showgrid="false"
     inkscape:zoom="0.55782868"
     inkscape:cx="622.97156"
     inkscape:cy="564.30253"
     inkscape:window-x="-8"
     inkscape:window-y="-8"
     inkscape:window-maximized="1"
     inkscape:current-layer="svg2" />
  <path
     style="fill:#000000"
     d="m 785.01293,174.99997 -189.98513,209.53776 143.05462,0 0,316.82306 -333.83458,0 -95.34104,105.60769 429.17562,-0.0295 c 73.61105,0.0348 92.00493,-40.34273 93.09944,-105.57822 0.30073,-105.60764 0.83204,-316.82306 0.83204,-316.82306 l 142.9861,0 -189.98707,-209.53776 z m -93.9217,18.02953 -429.17365,0.0295 c -73.61105,-0.0348 -92.00493,40.34273 -93.09944,105.57822 -0.30073,105.60763 -0.83204,316.82306 -0.83204,316.82306 L 25,615.46028 214.98708,825 404.9722,615.46028 l -143.05462,0 0,-316.82306 333.83458,0 95.33907,-105.60769 z"
     id="path4138"
     inkscape:connector-curvature="0" />
</svg>
