<?xml version="1.0" encoding="UTF-8" standalone="no"?>
<!-- Created with Inkscape (http://www.inkscape.org/) -->

<svg
   xmlns:dc="http://purl.org/dc/elements/1.1/"
   xmlns:cc="http://creativecommons.org/ns#"
   xmlns:rdf="http://www.w3.org/1999/02/22-rdf-syntax-ns#"
   xmlns:svg="http://www.w3.org/2000/svg"
   xmlns="http://www.w3.org/2000/svg"
   xmlns:sodipodi="http://sodipodi.sourceforge.net/DTD/sodipodi-0.dtd"
   xmlns:inkscape="http://www.inkscape.org/namespaces/inkscape"
   id="svg2"
   version="1.1"
   inkscape:version="0.91 r13725"
   width="1000"
   height="1000"
   viewBox="0 0 1000 1000"
   sodipodi:docname="smile_logo.svg">
  <metadata
     id="metadata8">
    <rdf:RDF>
      <cc:Work
         rdf:about="">
        <dc:format>image/svg+xml</dc:format>
        <dc:type
           rdf:resource="http://purl.org/dc/dcmitype/StillImage" />
        <dc:title></dc:title>
      </cc:Work>
    </rdf:RDF>
  </metadata>
  <defs
     id="defs6" />
  <sodipodi:namedview
     pagecolor="#ffffff"
     bordercolor="#666666"
     borderopacity="1"
     objecttolerance="10"
     gridtolerance="10"
     guidetolerance="10"
     inkscape:pageopacity="0"
     inkscape:pageshadow="2"
     inkscape:window-width="1920"
     inkscape:window-height="1017"
     id="namedview4"
     showgrid="false"
     inkscape:zoom="0.5"
     inkscape:cx="563.29654"
     inkscape:cy="478.79299"
     inkscape:window-x="-8"
     inkscape:window-y="-8"
     inkscape:window-maximized="1"
     inkscape:current-layer="svg2" />
  <path
     style="fill:#f2668b;fill-opacity:1;stroke:#f2668b;stroke-width:20;stroke-miterlimit:4;stroke-dasharray:none;stroke-opacity:1"
     d="m 173.07187,798.30075 c 14.40725,-2.51441 -6.54813,-30.07471 -8.91629,-57.06601 -2.36817,-26.99129 -2.30254,-63.91691 1.5213,-97.85492 1.52823,-13.38882 3.3135,-26.67679 5.5489,-41.77605 9.33221,-63.03418 38.70657,-134.71656 81.62696,-197.33798 l 0.0683,-0.11113 0.0962,-0.1282 c 9.56601,-13.94031 19.77277,-27.4359 31.22735,-40.97693 3.51817,-4.11827 6.4235,-7.53976 9.41628,-10.85852 7.69842,-8.53691 15.27333,-16.33167 24.94127,-25.90491 13.97506,-13.57255 25.28772,-23.25776 39.67357,-34.79129 16.14802,-12.58634 28.41122,-21.40462 43.0025,-30.6184 15.03998,-9.22303 25.89368,-15.38833 41.33375,-23.53534 16.02414,-8.7909 31.04895,-16.93712 45.78443,-17.54415 12.6243,-0.43098 6.5767,53.14128 5.86301,77.6143 -1.22945,42.5054 12.51957,55.4717 21.44356,50.39749 6.11268,-3.47492 95.34798,3.18304 147.44046,15.56987 28.688,6.82167 54.76991,12.40119 57.95914,12.40119 3.18933,0 13.31293,-12.35805 22.4948,-27.46468 18.90047,-31.09594 47.67775,-60.96327 58.73901,-60.96327 32.49296,0 3.1432,109.11494 -20.72349,235.91116 -8.00246,42.51518 -22.75268,89.39603 -32.58413,103.56195 -10.11667,14.5767 -4.74308,21.76833 16.2707,21.76833 31.84765,0 61.0405,33.55487 53.43794,61.42481 -3.75959,13.78259 -20.92302,21.12475 -34.15242,14.61049 -10.9438,-5.38901 -18.78982,-2.81177 -18.78982,6.17711 0,14.01301 37.20767,18.8041 53.67727,8.22829 16.4696,-10.57582 21.73074,-23.9892 17.06136,-49.62115 -4.66938,-25.63195 -22.45106,-50.67187 -53.05774,-56.30395 -7.48316,-1.37625 -12.76443,-4.61515 -11.73455,-7.19628 1.02989,-2.57849 5.42616,-14.63902 9.77097,-26.79804 4.46845,-12.50492 10.64881,-22.10805 14.22804,-22.10805 3.48042,0 17.01956,3.87727 30.08635,8.61716 17.42265,6.31862 25.0935,7.36465 28.77231,3.9272 6.87209,-6.42254 -6.47,-15.00734 -37.14802,-23.90501 -13.30804,-3.85983 -24.19559,-8.7358 -24.19559,-10.83288 0,-2.09867 15.33054,-3.22658 34.0691,-2.50417 18.73842,0.71713 35.72635,-0.21231 37.75059,-2.07897 7.48541,-6.88706 -14.43994,-15.33057 -39.8082,-15.33057 l -25.73183,0 6.33308,-38.94924 c 9.59109,-59.00172 29.26734,-131.13854 28.25736,-174.65942 -1.00997,-43.52087 -18.19386,-59.94366 -44.67763,-48.38049 -19.51908,8.52223 -39.14339,28.59995 -57.99973,59.34157 -16.26436,26.51529 -6.76223,25.62637 -90.71846,8.50178 -28.9476,-5.90473 -84.17946,-8.38374 -97.95963,-10.27308 l -25.05451,-3.43149 c -15.23637,-35.03001 9.99425,-92.56932 -13.00374,-116.40968 -6.2646,-5.44913 -13.18394,-9.05947 -19.55689,-9.05947 -6.733,0 -14.69933,1.69669 -23.36441,4.3823 -33.41796,10.35748 -80.51782,40.05424 -138.29556,87.43868 -66.1718,54.26874 -105.88375,131.6185 -109.76464,131.6185 -2.37673,0 -9.00437,-2.88285 -16.41385,-6.40785 -27.07855,-12.88407 -35.39341,-14.53997 -41.13077,-8.17916 -4.48802,4.97774 -0.56774,7.94976 22.73197,17.24716 19.82963,7.91264 25.7694,13.42287 24.73188,18.16805 -1.61275,7.37481 -7.95732,7.63101 -46.18186,2.41656 -20.02001,-2.73144 -24.02891,-2.21134 -24.02891,3.13022 0,7.61369 5.55034,9.87618 33.79561,13.77293 11.68012,1.61353 22.17072,4.32485 23.31313,6.02327 0.80935,1.20316 -11.23032,21.77894 -25.29169,72.04829 -2.47349,8.84272 -4.9715,18.66778 -7.51464,29.44963 -2.90733,11.98539 -5.25028,23.68107 -7.43773,34.90668 -2.74984,16.29686 -4.74335,32.71306 -5.97197,49.19454 -0.89212,12.58221 -1.33769,25.19232 -1.33755,37.80613 8e-5,17.81884 1.38379,35.28645 2.66869,53.35675 1.28491,18.07031 13.00186,52.86275 27.40911,50.34834 z M 412.11111,438.00372 c -30.49058,0.30852 -60.50818,9.71114 -60.50818,23.20416 0,9.74507 5.27753,9.72557 34.3255,-0.10685 28.06433,-9.5104 63.21134,-2.83494 79.63559,15.12545 12.77584,13.96976 25.62928,16.25456 25.62928,4.55535 l 0,-0.0128 c 0,-10.73164 -19.60704,-29.2586 -38.75053,-36.61815 -8.96606,-3.44683 -19.75073,-5.34611 -30.88547,-5.9442 -3.13163,-0.16823 -6.29197,-0.23487 -9.44619,-0.20297 z m 51.6218,71.60601 c -13.3749,0 -11.91432,18.89714 2.48493,32.14609 9.7276,8.94988 15.18005,10.50363 33.18238,9.46115 15.98983,-0.92805 25.6701,1.14735 37.56042,8.03599 20.34181,11.78361 42.81023,12.03131 55.22634,0.60682 5.57514,-6.64438 8.11047,-10.0256 3.92077,-14.82204 -4.84323,-5.36949 -6.50901,-5.33287 -13.25372,0.26495 -9.80029,8.16051 -22.82062,8.18062 -35.42588,0.0513 -7.99075,-5.15173 -9.38257,-9.16774 -7.28602,-21.05468 2.05292,-11.63803 1.07414,-14.68955 -4.71135,-14.68955 -4.01634,0 -9.7433,4.26526 -12.72596,9.47395 -7.02173,12.26817 -12.8573,15.6473 -27.16341,15.72586 -13.64863,0.0528 -22.65504,-6.929 -22.65504,-17.62108 0,-4.77206 -3.39001,-7.57873 -9.15346,-7.57873 z m -75.47766,136.38322 c -2.69143,-0.032 -5.3928,0.0232 -8.08514,0.15813 -37.69404,1.88684 -73.77887,19.37553 -59.90135,32.14397 3.71367,3.4169 10.08011,2.31912 23.74473,-4.09812 22.09409,-10.37041 60.71725,-11.66736 83.69098,-2.81399 38.44711,14.81925 56.58693,55.37192 35.69724,79.80651 -12.99411,15.1989 -33.77302,14.86053 -54.69004,-0.89098 -23.31624,-17.55857 -33.75121,-21.70208 -54.66226,-21.70208 -12.67885,0 -19.6303,2.10571 -21.46279,6.49972 -3.88965,9.32585 1.10639,12.18138 19.31757,11.05296 12.38978,-0.76986 21.80622,2.8389 41.77393,15.99506 21.24149,13.99505 29.47194,16.96731 46.77156,16.89033 12.9444,-0.0528 24.73829,-2.88467 30.75727,-7.36935 14.20385,-13.99783 19.80334,-27.47829 19.98635,-42.51321 0,-45.10529 -37.96395,-78.22239 -94.91059,-82.79356 -2.65478,-0.21324 -5.33599,-0.33334 -8.02746,-0.36539 z"
     id="path4289"
     inkscape:connector-curvature="0"
     sodipodi:nodetypes="czcsccccscccccccsssssssscszzccssccssccsccsssscccssssccsccsccscccszzccccsssscccccccccccsccsccccsccsssccccccccc" />
</svg>
