<?xml version="1.0" encoding="UTF-8" standalone="no"?>
<!-- Created with Inkscape (http://www.inkscape.org/) -->

<svg
   xmlns:dc="http://purl.org/dc/elements/1.1/"
   xmlns:cc="http://creativecommons.org/ns#"
   xmlns:rdf="http://www.w3.org/1999/02/22-rdf-syntax-ns#"
   xmlns:svg="http://www.w3.org/2000/svg"
   xmlns="http://www.w3.org/2000/svg"
   xmlns:sodipodi="http://sodipodi.sourceforge.net/DTD/sodipodi-0.dtd"
   xmlns:inkscape="http://www.inkscape.org/namespaces/inkscape"
   id="svg2"
   version="1.1"
   inkscape:version="0.91 r13725"
   width="814.13428"
   height="814.13428"
   viewBox="0 0 814.13428 814.13428"
   sodipodi:docname="telegram.svg">
  <metadata
     id="metadata8">
    <rdf:RDF>
      <cc:Work
         rdf:about="">
        <dc:format>image/svg+xml</dc:format>
        <dc:type
           rdf:resource="http://purl.org/dc/dcmitype/StillImage" />
        <dc:title />
      </cc:Work>
    </rdf:RDF>
  </metadata>
  <defs
     id="defs6" />
  <sodipodi:namedview
     pagecolor="#ffffff"
     bordercolor="#666666"
     borderopacity="1"
     objecttolerance="10"
     gridtolerance="10"
     guidetolerance="10"
     inkscape:pageopacity="0"
     inkscape:pageshadow="2"
     inkscape:window-width="1920"
     inkscape:window-height="1017"
     id="namedview4"
     showgrid="false"
     inkscape:zoom="0.28987847"
     inkscape:cx="806.28966"
     inkscape:cy="724.96339"
     inkscape:window-x="-8"
     inkscape:window-y="-8"
     inkscape:window-maximized="1"
     inkscape:current-layer="svg2" />
  <path
     style="fill:#ffffff;fill-opacity:1"
     d="M 361.8408,810.56242 C 294.49516,802.78828 214.78499,771.24014 162.88194,731.81743 -10.048,600.46927 -51.192083,361.78998 67.994187,181.36781 87.721201,151.50539 130.19814,106.17381 159.05593,84.186323 318.79417,-37.522342 541.19095,-25.942746 687.47215,111.69952 770.0505,189.40106 814,291.80915 814,406.5262 c 0,71.3807 -12.72265,124.06097 -45.16081,186.99595 -62.68918,121.62651 -180.93652,201.73847 -320.91999,217.42166 -38.65183,4.33037 -45.5249,4.29992 -86.0784,-0.38124 z M 527.89083,626.91427 c 8.84964,-7.90119 12.70029,-24.38835 48.24175,-206.55496 21.24343,-108.88257 38.10248,-201.61733 37.46457,-206.07714 -0.79612,-5.56612 -4.35335,-8.47725 -11.34433,-9.28388 -6.42716,-0.74157 -92.44658,31.39145 -233.15956,87.09801 -122.63628,48.5502 -227.6031,90.66027 -233.25957,93.57787 -29.85468,15.39907 -12.9988,31.15104 58.93499,55.07523 l 56.75578,18.87617 133.10027,-85.53935 c 73.20518,-47.04662 135.25663,-86.04162 137.89215,-86.65552 16.09985,-3.75017 -2.45033,16.12587 -86.36292,92.53589 -51.77004,47.14125 -99.93065,90.86331 -107.0236,97.16011 -12.72422,11.29597 -12.97494,12.14647 -18.79131,63.7396 -6.90042,61.20962 -7.21358,71.73706 -2.13369,71.73706 2.06872,0 19.71468,-14.59713 39.21329,-32.43806 19.49857,-17.84095 36.92811,-32.43808 38.73232,-32.43808 1.80418,0 25.04861,16.84291 51.65429,37.42873 74.34927,57.52674 73.08218,56.93938 90.08557,41.75832 z"
     id="path4138"
     inkscape:connector-curvature="0" />
</svg>
