<?xml version="1.0" encoding="UTF-8" standalone="no"?>
<!-- Created with Inkscape (http://www.inkscape.org/) -->

<svg
   xmlns:dc="http://purl.org/dc/elements/1.1/"
   xmlns:cc="http://creativecommons.org/ns#"
   xmlns:rdf="http://www.w3.org/1999/02/22-rdf-syntax-ns#"
   xmlns:svg="http://www.w3.org/2000/svg"
   xmlns="http://www.w3.org/2000/svg"
   xmlns:sodipodi="http://sodipodi.sourceforge.net/DTD/sodipodi-0.dtd"
   xmlns:inkscape="http://www.inkscape.org/namespaces/inkscape"
   id="svg2"
   version="1.1"
   inkscape:version="0.91 r13725"
   width="1628.2686"
   height="1628.2686"
   viewBox="0 0 1628.2686 1628.2686"
   sodipodi:docname="twitter.svg">
  <metadata
     id="metadata8">
    <rdf:RDF>
      <cc:Work
         rdf:about="">
        <dc:format>image/svg+xml</dc:format>
        <dc:type
           rdf:resource="http://purl.org/dc/dcmitype/StillImage" />
        <dc:title />
      </cc:Work>
    </rdf:RDF>
  </metadata>
  <defs
     id="defs6" />
  <sodipodi:namedview
     pagecolor="#ffffff"
     bordercolor="#666666"
     borderopacity="1"
     objecttolerance="10"
     gridtolerance="10"
     guidetolerance="10"
     inkscape:pageopacity="0"
     inkscape:pageshadow="2"
     inkscape:window-width="1920"
     inkscape:window-height="1017"
     id="namedview4"
     showgrid="false"
     inkscape:zoom="0.20497503"
     inkscape:cx="-486.93257"
     inkscape:cy="1055.1569"
     inkscape:window-x="-8"
     inkscape:window-y="-8"
     inkscape:window-maximized="1"
     inkscape:current-layer="svg2" />
  <path
     style="fill:#ffffff;fill-opacity:1"
     d="m 753.82409,1627.2163 c -117.47691,-11.9848 -204.52288,-35.6624 -296.82628,-80.7404 -82.8087,-40.4411 -143.6743,-83.2984 -210.0012,-147.868 -72.5194,-70.5982 -118.417,-133.176 -162.318402,-221.3088 -40.3452,-80.9935 -65.7789,-162.7017 -78.6246997,-252.59016 -8.6305,-60.39147 -7.9375,-168.30805 1.4704,-228.97527 C 21.317808,606.78294 44.861008,532.61747 84.678208,452.68408 128.57511,364.56034 174.46381,301.99236 246.99661,231.36716 c 68.3059,-66.50934 127.4933,-107.85224 214.248,-149.653832 77.2738,-37.2333 154.75274,-60.7788 241.69608,-73.4503009 57.57456,-8.3911 169.86839,-7.6193 228.97527,1.5739 85.94164,13.3670009 160.38854,36.5395009 235.84524,73.4098009 84.2245,41.154592 143.5998,82.922992 210.5582,148.120432 72.5328,70.6252 118.4215,133.19318 162.3184,221.31692 40.3808,81.06494 65.8585,162.95356 78.5873,252.59022 8.1161,57.15337 8.1161,162.28127 0,219.43464 -19.8236,139.59836 -73.4909,269.19056 -158.4201,382.54246 -28.3903,37.8916 -95.9968,107.7747 -134.5427,139.0735 -111.9793,90.9254 -250.344,151.9315 -393.66825,173.5714 -40.2536,6.0777 -147.78697,10.4808 -178.76996,7.32 z m -65.34983,-443.4174 c 117.91498,-10.4362 213.83755,-49.5698 294.3251,-120.0761 60.52614,-53.0202 120.17444,-135.60461 147.49364,-204.20821 21.0699,-52.91059 39.8186,-134.34081 43.5669,-189.22262 1.1947,-17.49117 3.6042,-34.56318 5.3545,-37.9378 1.7504,-3.37465 17.2481,-20.92548 34.4394,-39.0019 35.741,-37.58117 49.2145,-54.29885 46.195,-57.31827 -1.1583,-1.15829 -16.7421,2.6142 -34.6307,8.38336 -17.8886,5.76916 -35.863,9.97579 -39.943,9.34808 l -7.4183,-1.14132 9.0084,-11.60234 c 31.7936,-40.9485 40.7106,-53.48188 46.5638,-65.44803 3.6174,-7.39536 5.8184,-14.20477 4.8912,-15.13196 -0.9272,-0.92722 -12.2881,3.15255 -25.2465,9.06612 -12.9583,5.9136 -37.5768,15.36644 -54.7078,21.00629 l -31.1472,10.2543 -24.5065,-16.07699 c -40.0141,-26.25048 -60.4723,-35.12792 -89.2761,-38.73959 -65.21357,-8.17712 -123.75237,13.17934 -166.94101,60.90434 -32.51869,35.93433 -46.55793,75.46128 -46.55793,131.08214 l 0,34.68463 -21.46643,-2.17504 c -78.60041,-7.96401 -163.44064,-38.64161 -231.36042,-83.65825 -36.6291,-24.27742 -46.0765,-31.96905 -91.4696,-74.47023 l -37.406,-35.02294 -4.7685,11.41263 c -22.2563,53.26687 -21.5334,117.83914 1.8468,164.96225 9.18,18.50222 11.9304,22.41353 36.0929,51.32662 17.542,20.99093 12.9076,23.11989 -24.9564,11.46463 -17.1498,-5.27905 -31.7211,-9.59829 -32.3805,-9.59829 -5.8773,0 5.757,52.91195 17.7354,80.6594 15.2643,35.3589 54.0553,72.70222 98.5002,94.82419 l 24.0848,11.98794 -30.3992,0.0805 c -20.3071,0.0538 -32.3381,1.4982 -36.2394,4.35091 -5.6136,4.1048 -5.5304,4.93734 2.1455,21.46643 20.8394,44.87512 71.7421,84.23332 133.66275,103.34852 10.05742,3.1048 18.28622,6.6788 18.28622,7.9422 0,3.6943 -47.51027,30.4959 -71.64897,40.4189 -43.9586,18.0705 -98.1542,28.6816 -150.9659,29.5582 -11.3692,0.1886 -24.2491,1.3485 -28.6219,2.5774 -7.7008,2.164 -7.501,2.4985 6.3604,10.6463 39.0776,22.97 110.1664,49.9226 158.0432,59.9204 53.62778,11.1989 99.46129,13.9326 153.46215,9.1532 z"
     id="path4138"
     inkscape:connector-curvature="0" />
</svg>
